# xmcd
#
# Track frame offsets:
#  150
#  13659
#  26093
#  41050
#  55975
#  71012
#  84959
#  98363
#  112650
#  129442
#  142842
#  156221
#  169445
#  184446
#  196957
#
# Disc length: 2737 seconds
#
# Revision: 0
# Processed by: cddbd v1.4PL0 Copyright (c) Steve Scherf et al.
# Submitted via: AltoMP3_Maker 3.0
#
DISCID=c30aaf0f
DTITLE=Duke Ellington - Duke Ellington Vol. II
DYEAR=1900
DGENRE=
TTITLE0=Prelude To A Kiss
TTITLE1=Caravan
TTITLE2=Live And Love Tonight
TTITLE3=Don´t Get Around Much Any More
TTITLE4=In A Sentimental Mood
TTITLE5=I Let A Song Out Of My Heart
TTITLE6=Solitude
TTITLE7=Crescendo In Blue
TTITLE8=Sophisticated Lady
TTITLE9=Conga Brava
TTITLE10=Country Gal
TTITLE11=Take The ''A'' Train
TTITLE12=I Got It Bad And That Ain´t Good
TTITLE13=Far Away Blues
TTITLE14=Tea For Two
EXTD=
EXTT0=
EXTT1=
EXTT2=
EXTT3=
EXTT4=
EXTT5=
EXTT6=
EXTT7=
EXTT8=
EXTT9=
EXTT10=
EXTT11=
EXTT12=
EXTT13=
EXTT14=
PLAYORDER=
